<svg width="25" height="24" viewBox="0 0 25 24" fill="none" xmlns="http://www.w3.org/2000/svg">
<path d="M2.5 9.65356L11.5033 2.45092C12.2548 1.84969 13.3227 1.84969 14.0742 2.45092L23.0775 9.65356" stroke="#FF6421" stroke-width="1.5" stroke-linecap="round" stroke-linejoin="round"/>
<path d="M10.1934 3.53112L6.07792 6.87497C5.33069 7.48209 4.95708 7.78565 4.75734 8.20528C4.55762 8.6249 4.55762 9.10629 4.55762 10.0691V13.769C4.55762 17.6491 4.55762 19.5893 5.76302 20.7946C6.96843 22 8.90849 22 12.7886 22C16.6687 22 18.6089 22 19.8142 20.7946C21.0196 19.5893 21.0196 17.6491 21.0196 13.769V10.0691C21.0196 9.10629 21.0196 8.6249 20.8199 8.20528C20.6201 7.78565 20.2465 7.48209 19.4994 6.87497L15.3839 3.53112C14.1408 2.52112 13.5192 2.01611 12.7886 2.01611C12.058 2.01611 11.4365 2.52112 10.1934 3.53112Z" stroke="#FF6421" stroke-width="1.5"/>
<path d="M10.4736 16.084H15.1036" stroke="#FF6421" stroke-width="1.5" stroke-linecap="round"/>
</svg>
