<svg width="26" height="26" viewBox="0 0 26 26" fill="none" xmlns="http://www.w3.org/2000/svg">
<g clip-path="url(#clip0_128_2908)">
<path d="M12.9593 0.8125C7.6374 0.8125 3.12803 4.225 1.4624 8.9375H24.4562C22.7905 4.225 18.2812 0.8125 12.9593 0.8125Z" fill="#3E4347"/>
<path d="M12.9593 25.1875C18.2812 25.1875 22.7905 21.8156 24.4562 17.0625H1.4624C3.12803 21.8156 7.6374 25.1875 12.9593 25.1875Z" fill="#FFE62E"/>
<path d="M1.4626 8.9375C1.01572 10.1969 0.771973 11.5781 0.771973 13C0.771973 14.4219 1.01572 15.8031 1.4626 17.0625H24.4563C24.9032 15.8031 25.147 14.4219 25.147 13C25.147 11.5781 24.9032 10.1969 24.4563 8.9375H1.4626Z" fill="#ED4C5C"/>
</g>
<defs>
<clipPath id="clip0_128_2908">
<rect width="26" height="26" fill="white"/>
</clipPath>
</defs>
</svg>
