<svg width="26" height="26" viewBox="0 0 26 26" fill="none" xmlns="http://www.w3.org/2000/svg">
<g clip-path="url(#clip0_128_2841)">
<path d="M13.0003 0.8125C7.67842 0.8125 3.16904 4.18438 1.50342 8.9375H24.4972C22.8315 4.18438 18.3222 0.8125 13.0003 0.8125Z" fill="#ED4C5C"/>
<path d="M13.0003 25.1875C18.3222 25.1875 22.8315 21.8156 24.4972 17.0625H1.50342C3.16904 21.8156 7.67842 25.1875 13.0003 25.1875Z" fill="#428BC1"/>
<path d="M1.50313 8.9375C1.05625 10.1969 0.8125 11.5781 0.8125 13C0.8125 14.4219 1.05625 15.8031 1.50313 17.0625H24.4969C24.9438 15.8031 25.1875 14.4219 25.1875 13C25.1875 11.5781 24.9438 10.1969 24.4969 8.9375H1.50313Z" fill="white"/>
</g>
<defs>
<clipPath id="clip0_128_2841">
<rect width="26" height="26" fill="white"/>
</clipPath>
</defs>
</svg>
