<svg width="24" height="24" viewBox="0 0 24 24" fill="none" xmlns="http://www.w3.org/2000/svg">
<g clip-path="url(#clip0_98_63)">
<path d="M18.031 16.6169L21.6064 20.1915C21.9972 20.5822 21.9972 21.2157 21.6065 21.6064C21.2158 21.9972 20.5823 21.9971 20.1916 21.6064L16.617 18.0309C15.0237 19.3082 13.042 20.0028 11 19.9999C6.032 19.9999 2 15.9679 2 10.9999C2 6.03194 6.032 1.99994 11 1.99994C15.968 1.99994 20 6.03194 20 10.9999C20.0029 13.0419 19.3082 15.0237 18.031 16.6169ZM12.178 7.17694C11.3244 6.91414 10.4074 6.9446 9.57305 7.26346C8.73875 7.58232 8.03516 8.17124 7.5744 8.93638C7.11365 9.70152 6.92223 10.5989 7.03064 11.4854C7.13906 12.372 7.54108 13.1967 8.17264 13.8283C8.8042 14.4599 9.62896 14.8619 10.5155 14.9703C11.4021 15.0787 12.2994 14.8873 13.0646 14.4265C13.8297 13.9658 14.4186 13.2622 14.7375 12.4279C15.0563 11.5936 15.0868 10.6766 14.824 9.82294C14.6906 10.1176 14.4878 10.3756 14.2328 10.5747C13.9779 10.7738 13.6784 10.908 13.3602 10.966C13.042 11.0239 12.7144 11.0038 12.4056 10.9074C12.0969 10.811 11.8161 10.6411 11.5874 10.4123C11.3587 10.1835 11.1889 9.90269 11.0926 9.59389C10.9963 9.28509 10.9763 8.95753 11.0344 8.63931C11.0925 8.32109 11.2268 8.02171 11.426 7.76683C11.6252 7.51195 11.8832 7.31019 12.178 7.17694Z" fill="#838388"/>
</g>
<defs>
<clipPath id="clip0_98_63">
<rect width="24" height="24" fill="white"/>
</clipPath>
</defs>
</svg>
