<svg width="26" height="26" viewBox="0 0 26 26" fill="none" xmlns="http://www.w3.org/2000/svg">
<g clip-path="url(#clip0_128_2849)">
<path d="M0.8125 13C0.8125 15.3969 1.50312 17.6313 2.68125 19.5H23.2781C24.4562 17.6313 25.1469 15.3969 25.1469 13C25.1469 10.6031 24.4562 8.36875 23.2781 6.5H2.68125C1.50312 8.36875 0.8125 10.6031 0.8125 13Z" fill="#FFCE31"/>
<path d="M23.3187 6.5C21.1655 3.0875 17.3468 0.8125 12.9999 0.8125C8.65303 0.8125 4.83428 3.0875 2.68115 6.5H23.3187Z" fill="#ED4C5C"/>
<path d="M2.68115 19.5C4.83428 22.9125 8.65303 25.1875 12.9999 25.1875C17.3468 25.1875 21.1655 22.9125 23.3187 19.5H2.68115Z" fill="#ED4C5C"/>
<path d="M3.73779 11.6592H5.03779V12.3904H3.73779V11.6592Z" fill="#C8B100"/>
<path d="M3.73779 17.0215H5.07842V17.7121H3.73779V17.0215Z" fill="#C8B100"/>
<path d="M3.61572 15.8843C3.49385 15.9655 3.4126 16.0468 3.4126 16.0874C3.4126 16.128 3.45322 16.1687 3.53447 16.2093C3.61572 16.2499 3.69697 16.3312 3.65635 16.4124C3.7376 16.3312 3.77822 16.2499 3.77822 16.1687C3.77822 16.0468 3.69697 15.9249 3.61572 15.8843Z" fill="#ED4C5C"/>
<path d="M3.94092 12.3906H4.87529V17.0219H3.94092V12.3906Z" fill="white"/>
<path d="M5.84993 14.0969C5.6468 14.0156 5.28118 13.9344 4.87493 13.9344C4.75305 13.9344 4.59055 13.9344 4.42805 13.975C3.8593 14.0563 3.41243 14.3 3.45305 14.4625L3.24993 14.0156C3.2093 13.8125 3.6968 13.5687 4.30618 13.4469C4.5093 13.4062 4.71243 13.4062 4.87493 13.4062C5.28118 13.4062 5.6468 13.4469 5.84993 13.5281V14.0969Z" fill="#ED4C5C"/>
<path d="M3.94102 14.7062C3.69727 14.7062 3.49414 14.625 3.49414 14.5031C3.49414 14.4219 3.57539 14.3 3.73789 14.2188H3.98164L3.94102 14.7062Z" fill="#ED4C5C"/>
<path d="M4.875 14.3408C5.0375 14.3814 5.15937 14.4221 5.24062 14.4627C5.28125 14.5033 5.11875 14.6658 4.875 14.7877V14.3408Z" fill="#ED4C5C"/>
<path d="M3.33102 15.5999C3.29039 15.5187 3.57477 15.3562 3.94039 15.2343C4.10289 15.1937 4.22477 15.1124 4.42789 15.0312C4.91539 14.828 5.32164 14.5437 5.24039 14.4624L5.32164 14.9499C5.36227 15.0312 5.03727 15.2749 4.54977 15.5187C4.38727 15.5999 4.10289 15.7218 3.94039 15.7624C3.65602 15.8437 3.41227 16.0062 3.41227 16.0468L3.33102 15.5999Z" fill="#ED4C5C"/>
<path d="M12.4717 11.6592H13.7717V12.3904H12.4717V11.6592Z" fill="#C8B100"/>
<path d="M12.4312 17.0215H13.7718V17.7121H12.4312V17.0215Z" fill="#C8B100"/>
<path d="M13.8935 15.8843C14.0153 15.9655 14.0966 16.0468 14.0966 16.0874C14.0966 16.128 14.056 16.1687 13.9747 16.2093C13.8935 16.2905 13.8122 16.4124 13.8528 16.453C13.7716 16.3718 13.731 16.2905 13.731 16.2093C13.731 16.0468 13.8122 15.9249 13.8935 15.8843Z" fill="#ED4C5C"/>
<path d="M12.6343 12.3906H13.5687V17.0219H12.6343V12.3906Z" fill="white"/>
<path d="M11.6592 14.0969C11.8623 14.0156 12.2279 13.9344 12.6342 13.9344C12.7561 13.9344 12.9186 13.9344 13.0811 13.975C13.6498 14.0563 14.0967 14.3 14.0561 14.4625L14.2592 13.975C14.2998 13.7719 13.8123 13.5281 13.2029 13.4062H12.6342C12.2279 13.4062 11.8623 13.4469 11.6592 13.5281V14.0969Z" fill="#ED4C5C"/>
<path d="M13.5685 14.7062C13.8122 14.7062 14.0153 14.625 14.0153 14.5031C14.0153 14.4219 13.9341 14.3 13.7716 14.2188H13.5278L13.5685 14.7062Z" fill="#ED4C5C"/>
<path d="M12.6341 14.3408C12.4716 14.3814 12.3497 14.4221 12.2684 14.4627C12.2278 14.5033 12.3903 14.6658 12.6341 14.7877V14.3408Z" fill="#ED4C5C"/>
<path d="M14.1781 15.6004C14.2188 15.5191 13.9344 15.3566 13.5688 15.2348C13.4063 15.1941 13.2844 15.1129 13.0813 15.0316C12.5938 14.8285 12.1875 14.5441 12.2688 14.4629L12.1875 14.9504C12.1469 15.0316 12.4719 15.2754 12.9594 15.5191C13.1219 15.6004 13.4063 15.7223 13.5688 15.7629C13.8531 15.8441 14.0969 16.0473 14.0563 16.0879L14.1781 15.6004Z" fill="#ED4C5C"/>
<path d="M8.73408 9.05957C9.50596 9.05957 11.0903 9.22207 11.6591 9.79082C11.0497 11.2533 10.0747 10.6439 8.73408 10.6439C7.43408 10.6439 6.41846 11.2533 5.80908 9.79082C6.37783 9.22207 7.92158 9.05957 8.73408 9.05957Z" fill="#ED4C5C"/>
<path d="M10.7244 10.6844C10.2369 10.4 9.50566 10.3594 8.73379 10.3594C7.96191 10.3594 7.23066 10.4406 6.74316 10.6844L6.90566 11.375C7.35254 11.4969 8.00254 11.5781 8.73379 11.5781C9.46504 11.5781 10.0744 11.4969 10.5619 11.375L10.7244 10.6844Z" fill="#C8B100"/>
<path d="M11.4153 8.9375C11.2528 8.81562 10.9278 8.69375 10.6435 8.69375C10.5216 8.69375 10.3997 8.69375 10.2778 8.73437C10.2778 8.73437 10.0341 8.40938 9.46533 8.40938C9.26221 8.40938 9.09971 8.45 8.93721 8.53125V8.49062C8.89658 8.40937 8.81533 8.32812 8.73408 8.32812C8.65283 8.32812 8.53096 8.45 8.53096 8.53125V8.57188C8.36846 8.49063 8.20596 8.45 8.00283 8.45C7.43408 8.45 7.19033 8.81563 7.19033 8.775C7.06846 8.73438 6.94658 8.73437 6.82471 8.73437C4.95596 8.73437 5.89033 9.99375 5.89033 9.99375L6.09346 9.75C5.64658 9.18125 6.05283 8.85625 6.86533 8.85625C6.98721 8.85625 7.06846 8.85625 7.14971 8.89687C6.86533 9.30312 7.39346 9.66875 7.39346 9.66875L7.51533 9.46562C7.23096 9.2625 7.19033 8.57188 8.00283 8.57188C8.20596 8.57188 8.36846 8.6125 8.53096 8.73437C8.53096 8.775 8.49033 9.34375 8.44971 9.425L8.77471 9.70937L9.09971 9.425C9.05908 9.30313 9.01846 8.775 9.01846 8.73437C9.14033 8.65312 9.34346 8.57188 9.54658 8.57188C10.3997 8.57188 10.3997 9.2625 10.0341 9.46562L10.156 9.66875C10.156 9.66875 10.6028 9.30312 10.3997 8.89687C10.481 8.89687 10.6028 8.85625 10.6841 8.85625C11.6591 8.85625 11.6997 9.5875 11.456 9.75L11.6185 9.99375C11.5372 9.99375 11.9841 9.425 11.4153 8.9375Z" fill="#C8B100"/>
<path d="M8.49072 8.16563C8.49072 8.04375 8.6126 7.92188 8.73447 7.92188C8.89697 7.92188 8.97822 8.04375 8.97822 8.16563C8.97822 8.2875 8.85635 8.40938 8.73447 8.40938C8.6126 8.40938 8.49072 8.2875 8.49072 8.16563Z" fill="#005BBF"/>
<path d="M8.73447 11.4971C8.08447 11.4971 7.51572 11.4158 7.06885 11.2939C7.51572 11.1721 8.08447 11.0908 8.73447 11.0908C9.38447 11.0908 9.95322 11.1721 10.4001 11.2939C9.99385 11.4158 9.38447 11.4971 8.73447 11.4971Z" fill="#ED4C5C"/>
<path d="M8.7751 18.5249C8.00322 18.5249 7.27197 18.3218 6.62197 18.0374C6.13447 17.7937 5.8501 17.3468 5.8501 16.8187V14.8687H11.7001V16.8187C11.7001 17.3468 11.3751 17.8343 10.9282 18.0374C10.2782 18.3624 9.54697 18.5249 8.7751 18.5249Z" fill="white"/>
<path d="M8.73438 11.6187H11.6594V14.8687H8.73438V11.6187Z" fill="white"/>
<path d="M8.7751 16.8187C8.7751 17.5905 8.1251 18.1999 7.3126 18.1999C6.5001 18.1999 5.8501 17.5905 5.8501 16.8187V14.8687H8.7751V16.8187Z" fill="#ED4C5C"/>
<path d="M6.45898 17.9563C6.54023 17.997 6.66211 18.0782 6.82461 18.1188V14.7876H6.49961L6.45898 17.9563Z" fill="#C8B100"/>
<path d="M5.80908 16.7782C5.80908 17.1845 5.97158 17.5095 6.13408 17.672V14.7876H5.80908V16.7782Z" fill="#C8B100"/>
<path d="M7.10938 18.2001H7.43437V14.7876H7.10938V18.2001Z" fill="#C7B500"/>
<path d="M7.75928 18.1188C7.88115 18.0782 8.04365 17.997 8.1249 17.9563V14.7876H7.7999L7.75928 18.1188Z" fill="#C8B100"/>
<path d="M5.80908 11.6187H8.73408V14.8687H5.80908V11.6187Z" fill="#ED4C5C"/>
<path d="M8.44971 17.6719C8.61221 17.55 8.73408 17.2656 8.77471 16.9406V14.8281H8.44971V17.6719Z" fill="#C8B100"/>
<path d="M11.7004 14.8687V16.8187C11.7004 17.5905 11.0504 18.1999 10.2379 18.1999C9.42539 18.1999 8.77539 17.5905 8.77539 16.8187V14.8687H11.7004Z" fill="#ED4C5C"/>
<path d="M10.6439 12.1875C10.7657 12.4312 10.7657 13.0406 10.4001 12.9187C10.4814 12.9594 10.522 13.2437 10.6439 13.4062C10.847 13.65 11.0907 13.4469 11.0501 13.1625C10.9689 12.7156 11.0095 12.4312 11.0907 11.9844C11.0907 12.025 11.2939 12.025 11.3751 11.9437C11.3345 12.0656 11.2939 12.2281 11.3751 12.2281C11.2939 12.35 11.0907 12.5531 11.0501 12.675C11.0095 12.9594 11.4564 13.4875 10.9689 13.6094C10.6439 13.6906 10.847 13.9344 10.9689 14.0562C10.9689 14.0562 10.8064 14.5844 10.8876 14.5437C10.5626 14.6656 10.6439 14.3812 10.6439 14.3812C10.8064 13.8937 10.3595 13.8531 10.4001 13.7719C9.99386 13.7312 10.4407 14.1375 10.0751 14.1375C9.99386 14.1375 9.83136 14.2187 9.83136 14.2187C9.38449 14.1781 9.62824 13.7719 9.79074 13.8125C9.91261 13.8531 10.0345 14.0562 10.0345 13.7719C10.0345 13.7719 9.83136 13.4469 10.3595 13.4469C10.1564 13.4469 10.0345 13.2844 9.95324 13.0812C9.87199 13.1219 9.75011 13.325 9.30324 13.3656C9.30324 13.3656 9.18136 12.9187 9.30324 13C9.46574 13.0812 9.54699 13.0812 9.70949 12.9187C9.62824 12.7969 9.14074 12.6344 9.22199 12.35C9.22199 12.2687 9.46574 12.1469 9.46574 12.1469C9.42511 12.35 9.54699 12.5531 9.79074 12.5531C10.1157 12.5937 9.99386 12.4719 10.0345 12.3906C10.0751 12.3094 10.3189 12.4312 10.2376 12.2281C10.2376 12.1875 9.95324 12.1469 10.0345 12.025C10.197 11.8219 10.4407 11.9844 10.6439 12.1875Z" fill="#ED4C5C"/>
<path d="M8.7751 18.1187L8.69385 17.9156L8.7751 17.6719L8.85635 17.9156L8.7751 18.1187Z" fill="#ED4C5C"/>
<path d="M6.70322 12.3094V12.5125H6.78447V12.675H6.58135V13.0813H6.70322V13.975H6.45947V14.4219H8.1251V13.975H7.92197V13.0813H8.00322V12.675H7.8001V12.5125H7.92197V12.3094H7.51572V12.5125H7.59697V12.675H7.39385V12.1875H7.51572V11.9844H7.06885V12.1875H7.19072V12.675H6.9876V12.5125H7.06885V12.3094H6.70322Z" fill="#C8B100"/>
<path d="M11.2941 17.3062V15.2749H9.18164V17.3062L10.1566 17.753H10.2785L11.2941 17.3062ZM10.1566 15.4374V16.128L9.46602 15.4374H10.1566ZM9.30352 15.478L10.116 16.2905L9.30352 17.103V15.478ZM9.38477 17.2655L10.1566 16.4937V17.6312L9.38477 17.2655ZM10.2785 17.5905V16.453L11.0504 17.2249L10.2785 17.5905ZM11.1316 17.103L10.3191 16.2905L11.1316 15.478V17.103ZM10.2785 15.4374H10.9691L10.2785 16.128V15.4374Z" fill="#C8B100"/>
<path d="M7.80029 14.8282C7.80029 14.2188 8.20654 13.772 8.73467 13.772C9.26279 13.772 9.66904 14.2595 9.66904 14.8282C9.66904 15.397 9.26279 15.8845 8.73467 15.8845C8.20654 15.8845 7.80029 15.4376 7.80029 14.8282Z" fill="#ED4C5C"/>
<path d="M8.08447 14.828C8.08447 14.3812 8.36885 14.0562 8.73447 14.0562C9.1001 14.0562 9.38447 14.4218 9.38447 14.828C9.38447 15.2749 9.1001 15.5999 8.73447 15.5999C8.40947 15.6405 8.08447 15.2749 8.08447 14.828Z" fill="#005BBF"/>
<path d="M8.44961 14.2998L8.28711 14.7467L8.40898 14.7873L8.32773 14.9498H8.57148L8.49023 14.7873L8.61211 14.7467L8.44961 14.2998Z" fill="#C8B100"/>
<path d="M9.05898 14.2998L8.89648 14.7467L9.01836 14.7873L8.93711 14.9498H9.18086L9.14023 14.7873L9.26211 14.7467L9.05898 14.2998Z" fill="#C8B100"/>
<path d="M8.41357 15.0522L8.21045 15.4991L8.33232 15.5397L8.2917 15.7022H8.49482L8.4542 15.5397L8.57607 15.4991L8.41357 15.0522Z" fill="#C8B100"/>
</g>
<defs>
<clipPath id="clip0_128_2849">
<rect width="26" height="26" fill="white"/>
</clipPath>
</defs>
</svg>
